<?xml version="1.0" standalone="no"?><!DOCTYPE svg PUBLIC "-//W3C//DTD SVG 1.1//EN" "http://www.w3.org/Graphics/SVG/1.1/DTD/svg11.dtd"><svg t="1728371183812" class="icon" viewBox="0 0 1024 1024" version="1.1" xmlns="http://www.w3.org/2000/svg" p-id="10020" xmlns:xlink="http://www.w3.org/1999/xlink" width="200" height="200"><path d="M954.401 384.23l-164.51-263.14a38.062 38.062 0 0 0-32.37-17.9h-490.88a38.062 38.062 0 0 0-32.37 17.9L69.761 384.23c-8.79 14.12-7.41 32.31 3.43 44.93l409.76 478.31c13.67 15.98 37.71 17.86 53.69 4.19a38.55 38.55 0 0 0 4.19-4.19l409.76-478.31c10.96-12.53 12.5-30.73 3.81-44.93z" fill="#FFC200" p-id="10021"></path><path d="M266.641 103.19h490.88c13.16-0.03 25.4 6.74 32.37 17.9l164.51 263.14c4.3 7.08 6.17 15.37 5.33 23.62H64.421a38.078 38.078 0 0 1 5.33-23.62l164.51-263.14a38.104 38.104 0 0 1 32.38-17.9z m-59.03 304.66l291.33 509.91c8.6 3.21 18.06 3.21 26.66 0l291.33-509.91h-609.32z" fill="#FFE000" p-id="10022"></path><path d="M245.701 110.42a37.961 37.961 0 0 1 22.09-7.23h244.48l-304.66 304.66 38.09-297.43z m533.14 0a37.961 37.961 0 0 0-22.09-7.23h-244.48l304.66 304.66-38.09-297.43z" fill="#FFEC00" p-id="10023"></path><path d="M207.611 407.85h609.31l-304.65-304.66-304.66 304.66z" fill="#FFFF00" p-id="10024"></path></svg>